<svg viewBox="0 0 1024 1024" xmlns="http://www.w3.org/2000/svg" id="fe94fcd4-5a59-4931-92f0-6482ffe746cb"><defs><style>.ef3e8929-89a7-44be-abb3-e5af7fbcc3b1{fill:#e61f19;opacity:0.2;}.f96956cb-7db9-4b4f-91f9-7b8f9e57111b{fill:#fff;}.fce2cad2-c21e-4379-af2d-a1fa6d86e59e{fill:#231815;}.a36ff93e-cde1-4747-a16b-30921db1169e{fill:#040000;}.f43966aa-a5c3-473a-ae80-8e0a957ba85f{fill:#221714;}.a22987aa-54da-4414-a948-8a89e05d078f{fill:none;}</style></defs><title>党建1024px尺寸</title><path d="M900.43,512.52C724.89,475,782.84,141.24,427.65,141.24,196.12,141.24,122.3,280.86,99,378.07l53.92,37.51a6.4,6.4,0,1,1-7.31,10.51l-49.5-34.43c-6.4,36.86-2,102.11,3.24,136.77,4.89,32.71,2.44,64.82-23.57,168.21C-2.82,1009,323.72,837.38,634.82,899.69c80.92,16.21,149.56.28,203.8-32.75l-47.34-49.13a6.4,6.4,0,1,1,9.21-8.88l49.12,51C994.58,761.86,1027.16,539.63,900.43,512.52Z" class="ef3e8929-89a7-44be-abb3-e5af7fbcc3b1"></path><ellipse ry="98.13" rx="221.87" cy="133.83" cx="686.84" class="f96956cb-7db9-4b4f-91f9-7b8f9e57111b"></ellipse><path d="M686.84,234.09c-123.52,0-224-45-224-100.26s100.48-100.27,224-100.27,224,45,224,100.27S810.35,234.09,686.84,234.09Zm0-196.26c-121.16,0-219.74,43.06-219.74,96s98.58,96,219.74,96,219.73-43.07,219.73-96S808,37.83,686.84,37.83Z" class="fce2cad2-c21e-4379-af2d-a1fa6d86e59e"></path><path d="M883.1,403.77s0-76.8-12.8-81.06-12.8,21.33-8.53,34.13" class="f96956cb-7db9-4b4f-91f9-7b8f9e57111b"></path><path d="M883.1,405.91a2.14,2.14,0,0,1-2.13-2.14c0-31.25-3.52-76.43-11.34-79-2.66-.89-4,0-4.78.81-4.55,4.55-4.38,20.64-1.06,30.62a2.13,2.13,0,1,1-4,1.35c-3.44-10.3-4.3-28.59,2.09-35,1.67-1.68,4.61-3.36,9.14-1.85,13.57,4.53,14.26,70,14.26,83.09A2.14,2.14,0,0,1,883.1,405.91Z" class="a36ff93e-cde1-4747-a16b-30921db1169e"></path><path d="M813.35,372.7a23.72,23.72,0,0,1,3.12-21.65c4.23-6.07,11.5-11.28,24-11.28,29.74,0,59.73,136.54-47.5,285.87a41.63,41.63,0,0,1-3.7,4.27c-9.33,9.86-59.17,48-85.34,55.46l-42.66-64s42-10,72.53-38.4c29.82-27.72,60.77-69.08,83.48-110.93,5.89-10.85-4.57-22.24,0-34.13C834.15,394,818.58,387.44,813.35,372.7Z" class="f96956cb-7db9-4b4f-91f9-7b8f9e57111b"></path><path d="M703.9,687.51a2.13,2.13,0,0,1-1.77-1l-42.67-64a2.19,2.19,0,0,1-.21-2,2.15,2.15,0,0,1,1.49-1.29c.42-.1,41.8-10.21,71.58-37.89C761.57,554.22,792.62,513,815.38,471c2.66-4.9,1.44-10.18.15-15.77-1.33-5.78-2.71-11.76-.27-18.11,12.85-33.41,6.67-44.09.69-54.43a56.23,56.23,0,0,1-4.61-9.29h0a25.78,25.78,0,0,1,3.38-23.59c5.64-8.09,14.3-12.19,25.72-12.19,6.57,0,13,5.53,18.18,15.56,18,35.14,26.11,148.27-64,273.68a41.79,41.79,0,0,1-3.84,4.45c-9.89,10.45-59.68,48.48-86.34,56.09A2,2,0,0,1,703.9,687.51Zm-39.24-64.85,40.14,60.21c25.89-8.26,73.71-44.73,82.89-54.42a39.77,39.77,0,0,0,3.51-4.05c88.92-123.82,81.26-234.87,63.62-269.25-4.38-8.54-9.49-13.24-14.38-13.24-10,0-17.42,3.48-22.22,10.36A21.54,21.54,0,0,0,815.36,372h0a51.29,51.29,0,0,0,4.29,8.58c6.18,10.69,13.18,22.79-.41,58.1-2,5.13-.79,10.23.45,15.62,1.41,6.12,2.87,12.44-.56,18.77-23,42.31-54.34,84-83.91,111.47C709.27,608.66,674.82,619.77,664.66,622.66Z" class="a36ff93e-cde1-4747-a16b-30921db1169e"></path><path d="M842.72,433.64H803.54c-5.34,0-9.57-6.06-9.22-13.21l5.56-111.77c.32-6.5,4.35-11.55,9.21-11.55h39.18c5.34,0,9.57,6.05,9.21,13.2l-5.55,111.77C851.61,428.58,847.58,433.64,842.72,433.64Z" class="f96956cb-7db9-4b4f-91f9-7b8f9e57111b"></path><path d="M842.72,435.77H803.54a10,10,0,0,1-7.24-3.29,16.66,16.66,0,0,1-4.11-12.15l5.56-111.77c.38-7.62,5.36-13.59,11.34-13.59h39.18a10,10,0,0,1,7.23,3.29,16.64,16.64,0,0,1,4.12,12.16l-5.56,111.77C853.68,429.81,848.7,435.77,842.72,435.77ZM809.09,299.24c-3.7,0-6.81,4.18-7.08,9.53l-5.55,111.77a12.31,12.31,0,0,0,2.93,9,5.82,5.82,0,0,0,4.15,2h39.18c3.7,0,6.81-4.19,7.08-9.54l5.55-111.77a12.27,12.27,0,0,0-2.94-9,5.81,5.81,0,0,0-4.14-2Z" class="a36ff93e-cde1-4747-a16b-30921db1169e"></path><path d="M837,425.11H803.09c-4.62,0-8.28-5.68-8-12.38l4.81-104.79c.28-6.1,3.76-10.83,8-10.83h33.9c4.61,0,8.27,5.67,8,12.37L845,414.27C844.67,420.37,841.18,425.11,837,425.11Z" class="a36ff93e-cde1-4747-a16b-30921db1169e"></path><path d="M811.06,597.65c36.48-55.92,37.91-82.94,54.36-119.46,10.22-22.69,24.84-56.79,21.34-72.54-5.91-26.58-18-42.94-24.81-50.49a34.49,34.49,0,0,0-12.78-9.07c-4.35-1.72-10.27-3.51-13.61-.17-12.8,12.8,12.32,20,8.53,25.6,0,0-21.33,4.27,12.8,34.13,0,0-17.07,12.8-12.8,51.2" class="f96956cb-7db9-4b4f-91f9-7b8f9e57111b"></path><path d="M811.06,599.79a2.1,2.1,0,0,1-1.17-.35,2.14,2.14,0,0,1-.62-3c24.7-37.86,33.16-62.17,41.35-85.69,3.89-11.18,7.57-21.74,12.86-33.49,7.42-16.46,24.79-55,21.19-71.19-5.82-26.21-17.72-42.28-24.3-49.53a32.37,32.37,0,0,0-12-8.52c-3.68-1.45-8.85-3.1-11.32-.64-2.12,2.11-3.11,4.05-3,5.91.12,3.38,3.75,6.53,7,9.3,3.46,3,7.37,6.39,4.88,10.08a2.16,2.16,0,0,1-1.35.89c-.15,0-3.86.86-4.69,4.06s.51,10.66,18.47,26.38a2.09,2.09,0,0,1,.73,1.69,2.12,2.12,0,0,1-.85,1.62c-.15.12-16,12.74-12,49.26a2.13,2.13,0,1,1-4.24.47c-3.54-31.84,7.21-46.67,11.75-51.4-13.81-12.42-19.87-22.22-18-29.15a10.1,10.1,0,0,1,6.48-6.66c-.56-1-2.66-2.86-4-4-3.67-3.18-8.24-7.14-8.43-12.38-.11-3.07,1.33-6.12,4.29-9.08,4.74-4.73,12.85-1.52,15.91-.3a36.51,36.51,0,0,1,13.57,9.61c6.86,7.56,19.27,24.3,25.31,51.47,3.44,15.48-8.92,46-21.47,73.88-5.22,11.56-8.86,22-12.72,33.14-8.27,23.75-16.82,48.32-41.8,86.61A2.14,2.14,0,0,1,811.06,599.79Z" class="a36ff93e-cde1-4747-a16b-30921db1169e"></path><path d="M874.57,397.37a2.12,2.12,0,0,1-1.85-1.07c-15.87-27.78-35-20.72-35.77-20.41a2.13,2.13,0,0,1-1.57-4c.23-.09,23.26-8.86,41,22.26a2.13,2.13,0,0,1-1.85,3.19Z" class="a36ff93e-cde1-4747-a16b-30921db1169e"></path><path d="M191.9,839s-34.13,89.6-38.4,149.34h76.8s21.34-110.94,38.4-136.54Z" class="f96956cb-7db9-4b4f-91f9-7b8f9e57111b"></path><path d="M232.07,990.44H151.21l.17-2.29c4.24-59.36,38.19-149,38.53-149.94l.62-1.63,81.78,13.63L270.48,853c-16.63,24.95-37.87,134.64-38.08,135.75Zm-76.26-4.27h72.74c2.78-14.19,20.92-104.78,36.69-132.81l-72-12C188.74,853.62,160.32,931.9,155.81,986.17Z" class="a36ff93e-cde1-4747-a16b-30921db1169e"></path><path d="M702.54,614.06a21.47,21.47,0,0,0-29.75-5.75c-18.9,12.62-49.41,29.53-71.42,24.71-34.13-7.46-68.26-7.46-92.16,3.74,0,0,51.2,141.87,99,138.14,0,0,71.17-22.71,127.83-80.21a21.54,21.54,0,0,0,2.62-27.18Z" class="a36ff93e-cde1-4747-a16b-30921db1169e"></path><path d="M924.41,672.71c-4.78,0-9.18-3.35-13.08-10-3.08-5.24-6.24-8-9.13-8.08-3.67.11-6.79,4.29-8,6.16a29.44,29.44,0,0,1-6.45,7.6c-7.45,5.85-15.35,4.85-21.69-2.76C863,661.87,860,660,857.18,660s-4.93,1.91-6.27,3.52c-3,3.58-5.89,5.89-8.89,7.09-4.29,1.71-10.75,2.36-17-4.22-2.5-2.61-5.07-3.85-7.58-3.58-4.86.45-8.6,6-8.64,6a2.13,2.13,0,1,1-3.57-2.33c.2-.3,4.85-7.3,11.82-7.94,3.87-.37,7.61,1.28,11,4.88,3.75,3.9,7.91,5,12.4,3.2,2.32-.92,4.67-2.84,7.18-5.85,1.92-2.31,5.14-5.06,9.55-5.06,4.1,0,8.21,2.43,12.2,7.22,4.92,5.91,10.08,6.6,15.77,2.13a25.12,25.12,0,0,0,5.47-6.51c1.92-3.06,6-8.15,11.51-8.15h.13c4.52.06,8.81,3.49,12.75,10.18,3.08,5.23,6.24,7.89,9.4,7.89h.06c4.56-.05,8.75-5.74,10-7.94a2.14,2.14,0,0,1,3.73,2.08c-.23.41-5.68,10-13.65,10.12Z" class="a36ff93e-cde1-4747-a16b-30921db1169e"></path><path d="M924.41,700.31c-4.78,0-9.18-3.37-13.08-10-3.08-5.24-6.24-8-9.13-8.07h-.07c-3.63,0-6.73,4.3-7.89,6.16a29.44,29.44,0,0,1-6.45,7.6c-7.45,5.85-15.35,4.85-21.69-2.76-3.14-3.77-6.14-5.68-8.92-5.68s-4.93,1.91-6.27,3.52c-3,3.58-5.89,5.9-8.89,7.09-4.29,1.71-10.75,2.36-17-4.22-2.5-2.61-5.07-3.85-7.58-3.58-4.86.45-8.6,6-8.64,6a2.13,2.13,0,1,1-3.57-2.33c.2-.3,4.85-7.3,11.82-7.94,3.87-.35,7.61,1.28,11,4.88,3.75,3.91,7.92,5,12.4,3.2,2.32-.92,4.67-2.83,7.18-5.85,1.92-2.31,5.14-5.06,9.55-5.06,4.11,0,8.21,2.43,12.2,7.22,4.92,5.91,10.08,6.61,15.77,2.13a25.29,25.29,0,0,0,5.47-6.51c1.92-3,6-8.15,11.51-8.15h.13c4.52.06,8.81,3.49,12.75,10.18,3.08,5.23,6.24,7.89,9.4,7.89h.06c4.56,0,8.75-5.74,10-7.93a2.13,2.13,0,0,1,3.73,2.07c-.23.41-5.68,10-13.65,10.12Z" class="a36ff93e-cde1-4747-a16b-30921db1169e"></path><circle r="19.07" cy="251.29" cx="786.98" class="f96956cb-7db9-4b4f-91f9-7b8f9e57111b"></circle><path d="M787,272.49a21.21,21.21,0,1,1,21.2-21.2A21.23,21.23,0,0,1,787,272.49Zm0-38.14a16.94,16.94,0,1,0,16.94,16.94A17,17,0,0,0,787,234.35Z" class="fce2cad2-c21e-4379-af2d-a1fa6d86e59e"></path><circle r="10.28" cy="277.15" cx="820.85" class="f96956cb-7db9-4b4f-91f9-7b8f9e57111b"></circle><path d="M820.85,289.56a12.42,12.42,0,1,1,12.42-12.41A12.43,12.43,0,0,1,820.85,289.56Zm0-20.56a8.15,8.15,0,1,0,8.15,8.15A8.16,8.16,0,0,0,820.85,269Z" class="fce2cad2-c21e-4379-af2d-a1fa6d86e59e"></path><path d="M772.17,443.9a2.09,2.09,0,0,1-.94-.22c-.69-.34-16.91-8.52-20.61-25.83a2.13,2.13,0,1,1,4.17-.89c3.28,15.31,18.18,22.82,18.33,22.89a2.14,2.14,0,0,1-1,4Z" class="fce2cad2-c21e-4379-af2d-a1fa6d86e59e"></path><path d="M770.87,460.23l-.29,0c-.33,0-33.29-4.9-36.33-40.71a2.13,2.13,0,0,1,1.94-2.31,2.11,2.11,0,0,1,2.31,1.95c2.75,32.35,31.44,36.67,32.65,36.84a2.13,2.13,0,0,1-.28,4.25Z" class="fce2cad2-c21e-4379-af2d-a1fa6d86e59e"></path><path d="M904.62,440.38a2.13,2.13,0,0,1-1.67-3.46c9.7-12.21,6.07-28.54,6-28.7a2.13,2.13,0,0,1,4.15-1c.18.75,4.17,18.47-6.84,32.34A2.12,2.12,0,0,1,904.62,440.38Z" class="fce2cad2-c21e-4379-af2d-a1fa6d86e59e"></path><path d="M916.48,451.77a2.13,2.13,0,0,1-1.49-3.66c23.29-22.75,7.84-48.37,7.69-48.63a2.13,2.13,0,0,1,3.62-2.24c.18.28,17.38,28.81-8.33,53.93A2.15,2.15,0,0,1,916.48,451.77Z" class="fce2cad2-c21e-4379-af2d-a1fa6d86e59e"></path><path d="M162,834.71S203.23,641.36,385.3,616.43c0,0,89.72-1.86,162.34,9.79,44.2,7.09,62.4,63.42,62.4,84.75,0,63.32,4.26,162.14-12.8,277.34H273l8.53-110.94S196.17,877.37,162,834.71Z" class="f96956cb-7db9-4b4f-91f9-7b8f9e57111b"></path><path d="M597.24,990.44H273a2.14,2.14,0,0,1-2.13-2.3l8.36-108.67C265,879.16,192,875.58,160.37,836a2.15,2.15,0,0,1-.42-1.78c.42-2,43.6-195.1,225.06-219.94,1.15,0,91-1.75,163,9.79,25,4,40.63,22.93,49.29,38.08,10.24,17.93,14.9,37.86,14.9,48.78,0,9.78.1,20.4.21,31.8.6,62.57,1.42,148.28-13,245.85A2.14,2.14,0,0,1,597.24,990.44Zm-322-4.27H595.4c14.12-96.49,13.31-181.31,12.72-243.36-.11-11.42-.22-22-.22-31.84,0-20.76-18-75.82-60.6-82.64-71.6-11.48-161-9.78-162-9.76-171.55,23.5-217.44,200.7-221,215.6,33.53,40.57,116.32,41.07,117.15,41.07a2.13,2.13,0,0,1,2.13,2.3Z" class="a36ff93e-cde1-4747-a16b-30921db1169e"></path><ellipse transform="translate(-218.4 1003.6) rotate(-83.5)" ry="68.16" rx="30.58" cy="624.15" cx="453.03" class="a36ff93e-cde1-4747-a16b-30921db1169e"></ellipse><path d="M439.1,570.17l-14.88,41.59c-2.4,6.71.36,14.09,7,18.07,13.18,7.84,36.16,16.22,55.74-3.84a15.28,15.28,0,0,0,4.22-8.39l7.06-47.43Z" class="f96956cb-7db9-4b4f-91f9-7b8f9e57111b"></path><path d="M459.11,640.55c-11.47,0-22-4.73-28.94-8.89-7.44-4.43-10.72-12.91-8-20.62l15.39-43h63.15l-7.42,49.88a17.38,17.38,0,0,1-4.8,9.56C479,637.24,468.71,640.55,459.11,640.55Zm-18.5-68.24-14.38,40.17c-2.1,5.85.36,12.09,6.12,15.51,14.35,8.54,35.21,14.86,53.12-3.48a13.08,13.08,0,0,0,3.64-7.22l6.69-45Z" class="a36ff93e-cde1-4747-a16b-30921db1169e"></path><path transform="translate(1168.44 817.6) rotate(170.5)" d="M545.13,432.47h32.39a0,0,0,0,1,0,0v49.72a0,0,0,0,1,0,0H543.23A20.22,20.22,0,0,1,523,462v-7.39a22.11,22.11,0,0,1,22.11-22.11Z" class="f96956cb-7db9-4b4f-91f9-7b8f9e57111b"></path><path d="M527.49,488.47a2.1,2.1,0,0,1-1.24-.39,2.18,2.18,0,0,1-.87-1.39l-8.2-49a2.13,2.13,0,0,1,1.75-2.46l30.4-5.08a25.82,25.82,0,0,1,29.73,21.2l.38,2.31a25.85,25.85,0,0,1-21.21,29.73l-30.39,5.08Zm-5.75-49.41,7.5,44.82,28.29-4.73a21.55,21.55,0,0,0,17.7-24.82l-.38-2.3A21.58,21.58,0,0,0,550,434.32Z" class="a36ff93e-cde1-4747-a16b-30921db1169e"></path><path d="M550.41,464.47s-1.09-12.81,11.09-14.84" class="f96956cb-7db9-4b4f-91f9-7b8f9e57111b"></path><path d="M550.41,466.61a2.13,2.13,0,0,1-2.12-2c-.44-5.11,1.69-15.26,12.85-17.13a2.13,2.13,0,0,1,.71,4.21c-10.12,1.69-9.35,12.12-9.31,12.56a2.14,2.14,0,0,1-1.95,2.31Z" class="a36ff93e-cde1-4747-a16b-30921db1169e"></path><path transform="translate(-72.75 83.69) rotate(-9.5)" d="M448.08,372.45h38.67a66.08,66.08,0,0,1,66.08,66.08v63.14a85.42,85.42,0,0,1-85.42,85.42h0A85.42,85.42,0,0,1,382,501.67V438.53A66.08,66.08,0,0,1,448.08,372.45Z" class="f96956cb-7db9-4b4f-91f9-7b8f9e57111b"></path><path d="M468.46,589.38a84.69,84.69,0,0,1-83.3-70.69l-21.8-130.33a2.13,2.13,0,0,1,1.75-2.45L533.6,357.72a2.2,2.2,0,0,1,1.6.37,2.13,2.13,0,0,1,.86,1.39l21.8,130.32a84.65,84.65,0,0,1-69.51,97.44h0l-5.75,1A85.66,85.66,0,0,1,468.46,589.38ZM488,585.13h0ZM367.92,389.76,389.37,518a80.46,80.46,0,0,0,92.52,66l5.75-1a80.36,80.36,0,0,0,66-92.53L532.2,362.28Z" class="a36ff93e-cde1-4747-a16b-30921db1169e"></path><path transform="translate(-78.43 65.89) rotate(-9.5)" d="M352.62,480.24h32a0,0,0,0,1,0,0V530a0,0,0,0,1,0,0H355.49a25.33,25.33,0,0,1-25.33-25.33V502.7A22.46,22.46,0,0,1,352.62,480.24Z" class="f96956cb-7db9-4b4f-91f9-7b8f9e57111b"></path><path d="M354.08,532.67a25.86,25.86,0,0,1-25.45-21.57l-.39-2.3a25.85,25.85,0,0,1,21.21-29.73L379.84,474a2.17,2.17,0,0,1,1.6.37,2.13,2.13,0,0,1,.86,1.38l8.2,49a2.14,2.14,0,0,1-1.75,2.46l-30.4,5.08A25.82,25.82,0,0,1,354.08,532.67Zm24.36-54.13-28.29,4.74a21.55,21.55,0,0,0-17.7,24.81l.38,2.31a21.58,21.58,0,0,0,24.82,17.7l28.29-4.73Z" class="a36ff93e-cde1-4747-a16b-30921db1169e"></path><path d="M426.94,449.08c-.42,0-.83,0-1.25,0a2.14,2.14,0,0,1-2-2.27,2.19,2.19,0,0,1,2.28-2c12.75.93,25.19-16,25.31-16.19a2.14,2.14,0,0,1,3.46,2.51C454.2,431.85,441.55,449.08,426.94,449.08Z" class="a36ff93e-cde1-4747-a16b-30921db1169e"></path><path d="M498.68,428.25a2.13,2.13,0,0,1-1.21-3.89c.78-.55,19.46-13.24,33.38-7.2a2.13,2.13,0,1,1-1.7,3.91c-11.76-5.1-29.09,6.68-29.26,6.8A2.19,2.19,0,0,1,498.68,428.25Z" class="a36ff93e-cde1-4747-a16b-30921db1169e"></path><path d="M385.16,507.92a2.13,2.13,0,0,1-1.3-.44c-14-10.84-24.53-1.73-25-1.34A2.13,2.13,0,0,1,356,503c.13-.12,13.54-12,30.44,1.12a2.13,2.13,0,0,1,.38,3A2.11,2.11,0,0,1,385.16,507.92Z" class="a36ff93e-cde1-4747-a16b-30921db1169e"></path><path d="M418,305.64s35.79-38.91,90.61.2c.28,0,.54-.13.82-.18A43.23,43.23,0,0,1,559.86,350a29.92,29.92,0,1,1-36.72,47.24c-7.11,11.2-18.79,24-34,26.49-15.93,2.66-29.18,1-39.62-8.14,1.82,22.08-18.54,35.59-43.68,39.8-1.65.27-3.29.47-4.91.59-1.76,20.42,2.24,42.23,2.24,42.23l-20.12,8c-6.57-39.25-45.73-18.22-45.73-18.22s-9.79-27-12.63-44c-2.91-17.36,6.55-31,6.55-31,.18-.13.38-.24.57-.37a37.91,37.91,0,0,1-1.7-6.34c-3.28-19.63-6-40.91,24.48-50,.28-12.24,10.66-26.58,25-29.31C379.64,327,388.17,297.11,418,305.64Z" class="a36ff93e-cde1-4747-a16b-30921db1169e"></path><path d="M451.82,383.1a135,135,0,0,1-27.35-3,2.13,2.13,0,0,1,1-4.16c.47.11,47.87,10.67,62.62-10a2.14,2.14,0,0,1,3.48,2.48C483.18,380.16,466.47,383.1,451.82,383.1Z" class="f96956cb-7db9-4b4f-91f9-7b8f9e57111b"></path><path d="M502.16,358.76a2.14,2.14,0,0,1-1.58-3.57c.06-.07,6.41-7.15,7.42-13.18a2.13,2.13,0,1,1,4.21.7c-1.22,7.28-8.17,15-8.47,15.35A2.14,2.14,0,0,1,502.16,358.76Z" class="f96956cb-7db9-4b4f-91f9-7b8f9e57111b"></path><path d="M451.29,504a26.91,26.91,0,1,1,26.61-31.36h0a26.93,26.93,0,0,1-22.11,31A27.32,27.32,0,0,1,451.29,504Zm.07-49.56a22.65,22.65,0,0,0-13.16,41.08,22.65,22.65,0,0,0,35.49-22.17h0A22.68,22.68,0,0,0,451.36,454.48Z" class="a36ff93e-cde1-4747-a16b-30921db1169e"></path><path d="M476.63,473.66l-2.77-3.24c.57-.49,14.17-11.94,27.07-4.33l-2.17,3.67C488.48,463.69,476.75,473.56,476.63,473.66Z" class="a36ff93e-cde1-4747-a16b-30921db1169e"></path><path d="M426.57,487a2.06,2.06,0,0,1-.68-.11l-32.7-11a2.13,2.13,0,0,1,1.36-4l32.7,11a2.13,2.13,0,0,1-.68,4.15Z" class="a36ff93e-cde1-4747-a16b-30921db1169e"></path><path d="M154.15,658.25a2.13,2.13,0,0,1-1.17-3.92L184.31,634a2.13,2.13,0,1,1,2.32,3.57L155.31,657.9A2.07,2.07,0,0,1,154.15,658.25Z" class="a36ff93e-cde1-4747-a16b-30921db1169e"></path><path d="M183.34,661a2.13,2.13,0,0,1-1.47-.59l-27.06-25.77a2.13,2.13,0,1,1,2.94-3.09l27.06,25.77a2.13,2.13,0,0,1-1.47,3.68Z" class="a36ff93e-cde1-4747-a16b-30921db1169e"></path><path d="M256.88,530.28c-4.78,0-9.18-3.36-13.08-10-3.08-5.24-6.24-8-9.13-8.08-3.66.12-6.79,4.29-8,6.16a29.16,29.16,0,0,1-6.45,7.59c-7.45,5.86-15.35,4.85-21.69-2.76-3.14-3.77-6.14-5.68-8.92-5.68s-4.93,1.92-6.26,3.52c-3,3.58-5.89,5.9-8.89,7.09-4.3,1.71-10.75,2.36-17.06-4.22-2.49-2.6-5.05-3.81-7.56-3.58-4.91.44-8.61,6-8.65,6a2.13,2.13,0,0,1-3.57-2.33c.19-.3,4.84-7.3,11.82-7.95,3.88-.36,7.6,1.28,11.05,4.88,3.74,3.91,7.9,5,12.39,3.21,2.33-.93,4.68-2.84,7.19-5.86,1.92-2.3,5.13-5,9.54-5,4.11,0,8.21,2.42,12.2,7.21,4.92,5.92,10.09,6.61,15.78,2.14a25.47,25.47,0,0,0,5.47-6.51c1.92-3.06,6-8.16,11.5-8.16h.14c4.52.07,8.81,3.5,12.74,10.19,3.08,5.23,6.24,7.88,9.4,7.88h.06c4.56,0,8.75-5.74,10-7.93a2.14,2.14,0,0,1,3.73,2.08c-.23.41-5.68,10-13.65,10.12Z" class="a36ff93e-cde1-4747-a16b-30921db1169e"></path><path d="M523.83,487a26.94,26.94,0,0,1-26.49-22.47,26.91,26.91,0,1,1,53.09-8.88h0a26.92,26.92,0,0,1-22.1,31A27.5,27.5,0,0,1,523.83,487Zm.07-49.56a22.64,22.64,0,0,0-22.35,26.38,22.65,22.65,0,1,0,44.67-7.47h0A22.69,22.69,0,0,0,523.9,437.41Z" class="a36ff93e-cde1-4747-a16b-30921db1169e"></path><circle r="6.23" cy="448.74" cx="535.2" class="a36ff93e-cde1-4747-a16b-30921db1169e"></circle><path d="M450.81,516.29h-.12l-20.29-1.11a2.13,2.13,0,0,1,.24-4.26L450.92,512a2.13,2.13,0,0,1-.11,4.26Z" class="fce2cad2-c21e-4379-af2d-a1fa6d86e59e"></path><path d="M541.77,491.24a2.13,2.13,0,0,1-1.35-3.78l11.17-9.18a2.14,2.14,0,0,1,2.71,3.3l-11.17,9.17A2.13,2.13,0,0,1,541.77,491.24Z" class="fce2cad2-c21e-4379-af2d-a1fa6d86e59e"></path><path d="M494.18,501l-.29-2.13.05-2.14a4.93,4.93,0,0,0,4.54-2.75,5.24,5.24,0,0,0-.38-5.42,17.88,17.88,0,0,1-2.5-5.29,2.14,2.14,0,0,1,4.14-1.07,13.09,13.09,0,0,0,1.81,3.85,9.45,9.45,0,0,1,.74,9.85A9.15,9.15,0,0,1,494.18,501Z" class="fce2cad2-c21e-4379-af2d-a1fa6d86e59e"></path><path d="M482,526.1a2.14,2.14,0,0,1-1.69-3.44c.14-.18,14.13-17.83,35.24-6a2.13,2.13,0,1,1-2.08,3.72c-17.87-10-29.31,4.27-29.79,4.89A2.13,2.13,0,0,1,482,526.1Z" class="fce2cad2-c21e-4379-af2d-a1fa6d86e59e"></path><path d="M802.39,990.44H141.89a2.14,2.14,0,1,1,0-4.27h660.5a2.14,2.14,0,0,1,0,4.27Z" class="fce2cad2-c21e-4379-af2d-a1fa6d86e59e"></path><circle r="6.23" cy="465.81" cx="462.67" class="a36ff93e-cde1-4747-a16b-30921db1169e"></circle><path d="M239.16,685.48c12.59-8.57,28.22-12.11,43-8.52,18.44,4.46,47.52,24.33,45.12,72.33-3.39,67.79-33.71,114-46,130.19a16.24,16.24,0,0,1-13.17,6.42c-20.72-.25-76.54-4.07-106.2-36.32a16.11,16.11,0,0,1-3.79-14.17C163.56,809,185.12,722.24,239.16,685.48Z" class="a36ff93e-cde1-4747-a16b-30921db1169e"></path><path d="M395.13,768.11A107.59,107.59,0,0,0,413,775.75a168.65,168.65,0,0,0-5.46,39.77h-40.7a93.27,93.27,0,0,1,19.33-53A80.75,80.75,0,0,0,395.13,768.11Zm61.25,55.56H415.69a160.41,160.41,0,0,0,5.13,37.47,156.6,156.6,0,0,1,35.56-4.83Zm-61.25,47.41A107.59,107.59,0,0,1,413,863.44a168.65,168.65,0,0,1-5.46-39.77h-40.7a93.23,93.23,0,0,0,19.33,53.06A80.83,80.83,0,0,1,395.13,871.08Zm69.4-140.74v44.39a148.92,148.92,0,0,0,33.23-4.48,104.89,104.89,0,0,0-6.34-15C483.93,740.87,474.51,732.2,464.53,730.34Zm-8.15,85.18V782.88a156.6,156.6,0,0,1-35.56-4.83,160.41,160.41,0,0,0-5.13,37.47Zm43.72-37.47a156.69,156.69,0,0,1-35.57,4.83v32.64h40.7A160.41,160.41,0,0,0,500.1,778.05Zm-43.72,130.8V864.46a148.83,148.83,0,0,0-33.22,4.48,104.89,104.89,0,0,0,6.34,15C437,898.32,446.41,907,456.38,908.85ZM429.5,755.22a104.41,104.41,0,0,0-6.34,15,148.83,148.83,0,0,0,33.22,4.48V730.34C446.41,732.2,437,740.87,429.5,755.22Zm96.29,12.89a107.7,107.7,0,0,1-17.88,7.64,168.12,168.12,0,0,1,5.47,39.77h40.7a93.3,93.3,0,0,0-19.33-53.06A80.83,80.83,0,0,1,525.79,768.11ZM399,761a98.61,98.61,0,0,0,16.31,7,113.8,113.8,0,0,1,6.93-16.5c4.75-9.11,10.33-16.29,16.59-21.36,1.07-.87,2.16-1.68,3.25-2.41a93.63,93.63,0,0,0-50.68,28.54A73.53,73.53,0,0,0,399,761ZM438.86,909.1C432.6,904,427,896.84,422.27,887.74a114.27,114.27,0,0,1-6.93-16.5,99,99,0,0,0-16.31,7,75.38,75.38,0,0,0-7.6,4.74,93.63,93.63,0,0,0,50.68,28.54c-1.09-.74-2.18-1.54-3.25-2.41Zm83-30.87a98.7,98.7,0,0,0-16.32-7,112.07,112.07,0,0,1-6.93,16.5c-4.75,9.1-10.33,16.3-16.58,21.36-1.08.87-2.16,1.67-3.26,2.41A93.62,93.62,0,0,0,529.49,883a75.38,75.38,0,0,0-7.6-4.74ZM491.42,884a104.89,104.89,0,0,0,6.34-15,148.34,148.34,0,0,0-33.23-4.48v44.39c10-1.86,19.4-10.53,26.89-24.88Zm-26.89-60.3v32.64a156.69,156.69,0,0,1,35.57,4.83,160.34,160.34,0,0,0,5.13-37.47Zm17.53-93.58c6.25,5.07,11.84,12.26,16.58,21.36a112.53,112.53,0,0,1,6.93,16.5,99.07,99.07,0,0,0,16.32-7,75.38,75.38,0,0,0,7.6-4.74,93.62,93.62,0,0,0-50.69-28.54C479.9,728.41,481,729.22,482.06,730.09Zm52.69,146.64a93.32,93.32,0,0,0,19.33-53.06h-40.7a168.2,168.2,0,0,1-5.47,39.77,107.34,107.34,0,0,1,17.88,7.64,80.75,80.75,0,0,1,9,5.64Z" class="a36ff93e-cde1-4747-a16b-30921db1169e"></path><path d="M592.39,166c-30.95,0-66.51-24.5-68.22-25.7a2.13,2.13,0,0,1,2.43-3.5c.47.33,47,32.41,78.07,23.29,9-2.64,15.87-8.57,20.53-17.67-10.8-3.21-19.6-11.27-22.72-18.81-2-4.71-1.59-8.89,1-11.79,4.32-4.82,8.67-7.12,13-7.06,3.89.13,7.53,2.29,10.81,6.45a29,29,0,0,1,4,28.15c.71.09,1.43.16,2.15.2,9.15.48,22.37-3.21,33.56-23.65a2.13,2.13,0,0,1,3.74,2.05c-12.25,22.39-27.16,26.43-37.53,25.86a34.51,34.51,0,0,1-3.68-.41c-5.2,10.72-13.13,17.7-23.6,20.78A47.94,47.94,0,0,1,592.39,166Zm23.71-57c-2.9,0-6.07,1.9-9.43,5.65-1.95,2.17-1,5.51-.25,7.3,2.71,6.55,10.83,13.8,20.57,16.52,3.4-8.5,2.23-17.91-3.09-24.64-2.46-3.12-5-4.74-7.6-4.82Z" class="fce2cad2-c21e-4379-af2d-a1fa6d86e59e"></path><path d="M723,153.38a2.13,2.13,0,0,1-2.14-2.07l-1.64-55.82a2.13,2.13,0,0,1,.73-1.67,2.21,2.21,0,0,1,1.76-.5l140.38,23.81a2.13,2.13,0,0,1,.12,4.18l-138.73,32A2,2,0,0,1,723,153.38ZM723.6,98l1.49,50.62,125.81-29Z" class="fce2cad2-c21e-4379-af2d-a1fa6d86e59e"></path><polygon points="721.39 95.43 696.08 108.47 861.77 119.23 721.39 95.43" class="f43966aa-a5c3-473a-ae80-8e0a957ba85f"></polygon><path d="M861.77,121.37h-.14L695.94,110.59a2.13,2.13,0,0,1-.84-4l25.32-13a2.27,2.27,0,0,1,1.33-.21l140.38,23.81a2.14,2.14,0,0,1-.36,4.24ZM703.9,106.83l116.74,7.59-98.9-16.77Z" class="fce2cad2-c21e-4379-af2d-a1fa6d86e59e"></path><path d="M276,244.88a8.55,8.55,0,0,1-8.16-6l-8.47-27.44a8.53,8.53,0,0,1,6.47-10.88c6.5-1.34,20.72-6.51,23.06-13.94,1.79-5.67-3.71-13.08-8.64-18.31-6.95-7.37-13.09-10.54-18.22-9.4-9.07,2-16.83,17.2-19.17,24.24a8.53,8.53,0,0,1-16.2-5.38c1.05-3.15,10.82-30.91,31.68-35.52,11.41-2.54,23,2.3,34.33,14.35,11.75,12.46,15.95,24.31,12.48,35.21-4.06,12.77-17.59,19.62-26.91,22.92l5.9,19.11A8.53,8.53,0,0,1,276,244.88Z" class="a36ff93e-cde1-4747-a16b-30921db1169e"></path><circle r="10.01" cy="267.58" cx="287.79" class="a36ff93e-cde1-4747-a16b-30921db1169e"></circle><path d="M352.6,204.12a8.53,8.53,0,0,1-8.15-6L336,170.67a8.53,8.53,0,0,1,6.47-10.88c6.5-1.34,20.72-6.51,23.07-13.94,1.79-5.67-3.71-13.08-8.64-18.31-6.95-7.37-13.09-10.53-18.22-9.41-9.72,2.13-17.3,18.65-19.18,24.26a8.54,8.54,0,0,1-16.2-5.39c1.05-3.15,10.83-30.91,31.68-35.53,11.42-2.53,23,2.31,34.33,14.36,11.76,12.46,16,24.3,12.49,35.21-4.07,12.76-17.59,19.62-26.92,22.92l5.91,19.11a8.54,8.54,0,0,1-8.16,11.05Z" class="a36ff93e-cde1-4747-a16b-30921db1169e"></path><circle r="10.01" cy="226.82" cx="364.4" class="a36ff93e-cde1-4747-a16b-30921db1169e"></circle><path d="M199.24,287.62a8.53,8.53,0,0,1-8.15-6l-8.48-27.44a8.53,8.53,0,0,1,6.47-10.88c6.5-1.34,20.72-6.51,23.07-13.94,1.79-5.67-3.71-13.08-8.64-18.31-6.95-7.37-13.07-10.53-18.21-9.41-9.73,2.14-17.31,18.65-19.2,24.26a8.53,8.53,0,0,1-16.19-5.39c1.05-3.15,10.83-30.91,31.68-35.53,11.43-2.54,23,2.31,34.33,14.36,11.76,12.46,16,24.3,12.49,35.21-4.06,12.77-17.59,19.62-26.92,22.92l5.91,19.11a8.54,8.54,0,0,1-8.16,11.05Z" class="a36ff93e-cde1-4747-a16b-30921db1169e"></path><circle r="10.01" cy="310.32" cx="211.04" class="a36ff93e-cde1-4747-a16b-30921db1169e"></circle><rect height="1024" width="1024" class="a22987aa-54da-4414-a948-8a89e05d078f"></rect></svg>