<svg height="2581" node-id="1" sillyvg="true" template-height="2581" template-width="313" version="1.1" viewBox="0 0 3132 2581" width="3132" xmlns="http://www.w3.org/2000/svg" xmlns:xlink="http://www.w3.org/1999/xlink"><defs node-id="83"><linearGradient gradientUnits="userSpaceOnUse" id="paint0_linear_7_587" node-id="19" spreadMethod="pad" x1="2047.24" x2="2047.24" y1="486.782" y2="211.018"><stop offset="0" stop-color="#ffffff" stop-opacity="0.1"></stop><stop offset="0.14" stop-color="#f8fbff" stop-opacity="0.27"></stop><stop offset="0.37" stop-color="#edf5ff" stop-opacity="0.52"></stop><stop offset="0.58" stop-color="#e4f0ff" stop-opacity="0.73"></stop><stop offset="0.76" stop-color="#deecff" stop-opacity="0.88"></stop><stop offset="0.91" stop-color="#daeaff" stop-opacity="0.97"></stop><stop offset="1" stop-color="#d9e9ff"></stop></linearGradient><linearGradient gradientUnits="userSpaceOnUse" id="paint1_linear_7_587" node-id="27" spreadMethod="pad" x1="290.49" x2="721.267" y1="857.663" y2="294.219"><stop offset="0" stop-color="#ffffff" stop-opacity="0.1"></stop><stop offset="0.09" stop-color="#fefeff" stop-opacity="0.13"></stop><stop offset="0.23" stop-color="#fbfcff" stop-opacity="0.21"></stop><stop offset="0.4" stop-color="#f5f9ff" stop-opacity="0.33"></stop><stop offset="0.59" stop-color="#eef5ff" stop-opacity="0.51"></stop><stop offset="0.79" stop-color="#e4efff" stop-opacity="0.74"></stop><stop offset="1" stop-color="#d9e9ff"></stop></linearGradient><linearGradient gradientUnits="userSpaceOnUse" id="paint2_linear_7_587" node-id="35" spreadMethod="pad" x1="2331.5" x2="2804" y1="706" y2="88"><stop offset="0" stop-color="#ffffff" stop-opacity="0.1"></stop><stop offset="0.09" stop-color="#fefeff" stop-opacity="0.13"></stop><stop offset="0.23" stop-color="#fbfcff" stop-opacity="0.21"></stop><stop offset="0.4" stop-color="#f5f9ff" stop-opacity="0.33"></stop><stop offset="0.59" stop-color="#eef5ff" stop-opacity="0.51"></stop><stop offset="0.79" stop-color="#e4efff" stop-opacity="0.74"></stop><stop offset="1" stop-color="#d9e9ff"></stop></linearGradient><linearGradient gradientUnits="userSpaceOnUse" id="paint3_linear_7_587" node-id="43" spreadMethod="pad" x1="1692.27" x2="1737.27" y1="2610.5" y2="1352.5"><stop offset="0.2597" stop-color="#ffffff"></stop><stop offset="1" stop-color="#6397f7"></stop></linearGradient><linearGradient gradientUnits="userSpaceOnUse" id="paint4_linear_7_587" node-id="46" spreadMethod="pad" x1="2791.93" x2="2635.5" y1="1870.05" y2="1872.51"><stop offset="0" stop-color="#f3f8ff"></stop><stop offset="1" stop-color="#e4efff"></stop></linearGradient><linearGradient gradientUnits="userSpaceOnUse" id="paint5_linear_7_587" node-id="49" spreadMethod="pad" x1="3079.86" x2="2923.43" y1="2014.02" y2="2016.48"><stop offset="0" stop-color="#f3f8ff"></stop><stop offset="1" stop-color="#e4efff"></stop></linearGradient><linearGradient gradientUnits="userSpaceOnUse" id="paint6_linear_7_587" node-id="52" spreadMethod="pad" x1="529.695" x2="309.949" y1="2054.96" y2="2058.38"><stop offset="0" stop-color="#f3f8ff"></stop><stop offset="1" stop-color="#e4efff"></stop></linearGradient><linearGradient gradientUnits="userSpaceOnUse" id="paint7_linear_7_587" node-id="55" spreadMethod="pad" x1="1708.91" x2="2383.35" y1="1860.86" y2="2430.83"><stop offset="0" stop-color="#5a91f7" stop-opacity="0.21"></stop><stop offset="0.9749" stop-color="#ffffff" stop-opacity="0.3"></stop></linearGradient><linearGradient gradientUnits="userSpaceOnUse" id="paint8_linear_7_587" node-id="58" spreadMethod="pad" x1="1691" x2="1490.71" y1="2028" y2="1776.73"><stop offset="0" stop-color="#5792f0"></stop><stop offset="1" stop-color="#f3f8ff"></stop></linearGradient><linearGradient gradientUnits="userSpaceOnUse" id="paint9_linear_7_587" node-id="61" spreadMethod="pad" x1="1640" x2="1724.5" y1="1260.5" y2="1901.5"><stop offset="0" stop-color="#f3f8ff"></stop><stop offset="1" stop-color="#5792f0"></stop></linearGradient><linearGradient gradientUnits="userSpaceOnUse" id="paint10_linear_7_587" node-id="64" spreadMethod="pad" x1="1647" x2="1531.8" y1="1929" y2="1393.9"><stop offset="0" stop-color="#5792f0"></stop><stop offset="1" stop-color="#f3f8ff"></stop></linearGradient><linearGradient gradientUnits="userSpaceOnUse" id="paint11_linear_7_587" node-id="67" spreadMethod="pad" x1="1801.5" x2="1408.59" y1="1382.5" y2="999.178"><stop offset="0" stop-color="#5a91f7"></stop><stop offset="1" stop-color="#d9e9ff"></stop></linearGradient><linearGradient gradientUnits="userSpaceOnUse" id="paint12_linear_7_587" node-id="70" spreadMethod="pad" x1="1578" x2="1116.43" y1="1147.5" y2="871.57"><stop offset="0" stop-color="#5a91f7"></stop><stop offset="1" stop-color="#d9e9ff"></stop></linearGradient><linearGradient gradientUnits="userSpaceOnUse" id="paint13_linear_7_587" node-id="73" spreadMethod="pad" x1="1545" x2="1061.5" y1="1109" y2="704"><stop offset="0" stop-color="#e4efff"></stop><stop offset="1" stop-color="#5792f0" stop-opacity="0.86"></stop></linearGradient><linearGradient gradientUnits="userSpaceOnUse" id="paint14_linear_7_587" node-id="76" spreadMethod="pad" x1="1194" x2="1018.05" y1="814" y2="708.424"><stop offset="0" stop-color="#5792f0"></stop><stop offset="1" stop-color="#f3f8ff"></stop></linearGradient><linearGradient gradientUnits="userSpaceOnUse" id="paint15_linear_7_587" node-id="79" spreadMethod="pad" x1="1146" x2="702.5" y1="928.5" y2="315.5"><stop offset="0" stop-color="#5792f0"></stop><stop offset="1" stop-color="#e4efff"></stop></linearGradient></defs><path d="M 2235.74 315.73 C 2215.69 284.24 2181.74 264.72 2144.81 263.38 C 2123.31 230.10 2086.45 210.35 2047.21 211.02 C 2015.80 210.72 1985.54 223.24 1963.29 245.82 C 1953.12 242.54 1942.50 240.83 1931.84 240.83 C 1882.42 240.83 1841.62 275.49 1837.41 319.35 C 1799.73 328.44 1772.60 361.79 1771.00 401.03 C 1771.00 448.29 1813.71 486.78 1865.43 486.78 L 2228.10 486.78 C 2280.57 486.78 2322.53 448.29 2322.53 401.03 C 2323.35 356.13 2284.56 319.24 2235.74 315.73 Z" fill="url(#paint0_linear_7_587)" fill-rule="nonzero" node-id="212" stroke="none" target-height="276.43" target-width="552.3501" target-x="1771" target-y="210.35"></path><path d="M 836.18 436.00 L 774.96 436.00 C 774.96 313.36 675.55 214.00 553.02 214.00 C 430.41 214.00 331.09 313.36 331.09 436.00 L 286.36 436.00 C 229.92 436.00 184.27 485.68 184.27 547.00 C 184.27 608.32 230.00 658.00 286.36 658.00 L 836.18 658.00 C 892.55 658.00 938.27 608.32 938.27 547.00 C 938.27 485.68 892.55 436.00 836.18 436.00 Z" fill="url(#paint1_linear_7_587)" fill-rule="nonzero" node-id="214" stroke="none" target-height="444" target-width="754" target-x="184.27" target-y="214"></path><path d="M 2930.02 243.50 L 2862.89 243.50 C 2862.89 108.93 2753.86 0.00 2619.47 0.00 C 2485.07 0.00 2376.04 108.93 2376.04 243.50 L 2326.97 243.50 C 2265.09 243.50 2215.00 297.97 2215.00 365.25 C 2215.00 432.40 2265.09 487.00 2326.97 487.00 L 2930.02 487.00 C 2991.91 487.00 3042.00 432.40 3042.00 365.25 C 3042.00 297.97 2991.91 243.50 2930.02 243.50 Z" fill="url(#paint2_linear_7_587)" fill-rule="nonzero" node-id="216" stroke="none" target-height="487" target-width="827" target-x="2215" target-y="0"></path><path d="M 1522.45 1753.04 C 1964.28 1753.04 2362.13 1789.10 2640.28 1846.61 C 2912.30 1848.49 3131.28 1929.90 3131.28 2030.17 C 3131.28 2109.64 2993.71 2177.31 2801.23 2202.86 C 2755.31 2216.39 2703.55 2229.21 2646.76 2241.16 C 2648.27 2248.71 2648.99 2256.42 2648.99 2264.12 C 2648.99 2439.04 2268.70 2580.84 1799.58 2580.84 C 1377.55 2580.84 1027.35 2466.03 961.34 2315.66 C 398.21 2272.90 0.00 2167.66 0.00 2044.57 C 0.00 1883.54 681.61 1753.04 1522.45 1753.04 Z" fill="url(#paint3_linear_7_587)" fill-opacity="0.68" fill-rule="evenodd" node-id="218" stroke="none" target-height="827.80005" target-width="3131.28" target-x="0" target-y="1753.04"></path><path d="M 2809.58 1649.16 L 2811.81 1656.72 L 2813.69 1663.85 L 2814.55 1669.61 L 2812.82 1681.41 L 2807.78 1691.63 L 2800.01 1699.91 L 2790.22 1705.60 L 2781.72 1706.03 L 2773.59 1706.46 L 2765.02 1706.46 L 2694.91 1707.40 L 2694.91 1781.61 L 2695.56 1814.73 L 2697.14 1844.74 L 2699.38 1875.41 L 2634.59 1875.41 L 2635.96 1858.06 L 2636.82 1830.27 L 2637.33 1783.41 L 2637.33 1715.39 L 2629.12 1720.43 L 2620.19 1722.08 L 2612.92 1721.15 L 2606.95 1718.48 L 2601.84 1714.31 L 2597.73 1708.69 L 2546.84 1706.03 L 2533.24 1700.56 L 2522.15 1691.13 L 2516.61 1683.14 L 2513.37 1674.29 L 2512.22 1664.28 L 2512.65 1659.39 L 2514.02 1654.92 L 2525.25 1629.15 L 2527.12 1619.65 L 2530.86 1610.94 L 2536.26 1603.02 L 2542.81 1596.26 L 2613.43 1466.90 L 2613.86 1466.90 L 2623.36 1452.29 L 2634.16 1440.20 L 2642.51 1434.15 L 2652.44 1430.41 L 2664.25 1429.11 L 2679.72 1431.27 L 2693.33 1437.53 L 2704.49 1447.32 L 2712.40 1459.78 L 2769.13 1569.55 L 2778.70 1574.01 L 2787.05 1580.20 L 2794.32 1588.27 L 2799.79 1597.55 L 2803.10 1607.70 L 2804.18 1618.93 L 2801.95 1634.05 L 2809.58 1649.16 Z" fill="url(#paint4_linear_7_587)" fill-rule="nonzero" node-id="220" stroke="none" target-height="446.30005" target-width="302.33008" target-x="2512.22" target-y="1429.11"></path><path d="M 3097.52 1793.13 L 3099.75 1800.69 L 3101.62 1807.82 L 3102.48 1813.57 L 3100.75 1825.38 L 3095.72 1835.60 L 3087.94 1843.88 L 3078.15 1849.57 L 3069.66 1850.00 L 3061.52 1850.43 L 3052.96 1850.43 L 2982.85 1851.37 L 2982.85 1925.58 L 2983.49 1958.69 L 2985.08 1988.71 L 2987.31 2019.37 L 2922.52 2019.37 L 2923.89 2002.03 L 2924.76 1974.24 L 2925.26 1927.38 L 2925.26 1859.36 L 2917.05 1864.39 L 2908.13 1866.05 L 2900.86 1865.11 L 2894.88 1862.45 L 2889.77 1858.28 L 2885.67 1852.66 L 2834.78 1850.00 L 2821.17 1844.53 L 2810.09 1835.10 L 2804.54 1827.11 L 2801.30 1818.25 L 2800.15 1808.25 L 2800.58 1803.35 L 2801.95 1798.89 L 2813.18 1773.12 L 2815.05 1763.62 L 2818.80 1754.91 L 2824.19 1746.99 L 2830.75 1740.22 L 2901.36 1610.87 L 2901.79 1610.87 L 2911.29 1596.26 L 2922.09 1584.16 L 2930.44 1578.12 L 2940.38 1574.37 L 2952.18 1573.08 L 2967.66 1575.24 L 2981.26 1581.50 L 2992.42 1591.29 L 3000.34 1603.74 L 3057.06 1713.52 L 3066.63 1717.98 L 3074.98 1724.17 L 3082.26 1732.23 L 3087.73 1741.52 L 3091.04 1751.67 L 3092.12 1762.90 L 3089.89 1778.01 L 3097.52 1793.13 Z" fill="url(#paint5_linear_7_587)" fill-rule="nonzero" node-id="222" stroke="none" target-height="446.29004" target-width="302.33008" target-x="2800.15" target-y="1573.08"></path><path d="M 554.49 1741.45 L 557.65 1752.17 L 560.17 1762.25 L 561.47 1770.46 L 560.39 1781.90 L 557.22 1792.27 L 551.97 1801.70 L 541.10 1813.43 L 527.35 1821.56 L 515.33 1822.21 L 503.96 1822.79 L 491.93 1822.79 L 393.39 1824.08 L 393.39 1929.47 L 394.32 1976.47 L 396.48 2019.01 L 399.65 2062.56 L 308.67 2062.56 L 310.54 2037.95 L 311.83 1998.50 L 312.48 1931.99 L 312.48 1835.46 L 304.85 1840.78 L 296.93 1843.88 L 288.44 1844.89 L 278.29 1843.59 L 269.79 1839.85 L 262.67 1833.95 L 256.84 1825.96 L 185.43 1822.21 L 172.26 1817.53 L 160.74 1810.55 L 150.66 1801.05 L 142.96 1789.68 L 138.35 1777.08 L 136.77 1762.90 L 137.42 1755.92 L 139.29 1749.65 L 155.12 1713.01 L 157.72 1699.62 L 162.97 1687.17 L 170.53 1675.94 L 179.74 1666.37 L 278.94 1482.74 L 279.58 1482.74 L 292.90 1462.01 L 308.02 1444.88 L 319.82 1436.24 L 333.71 1430.98 L 350.42 1429.11 L 365.17 1430.48 L 378.70 1434.44 L 391.16 1441.13 L 402.17 1449.99 L 411.10 1460.42 L 418.01 1472.66 L 497.62 1628.51 L 511.08 1634.77 L 522.82 1643.55 L 533.04 1655.00 L 540.74 1668.17 L 545.35 1682.56 L 546.93 1698.54 L 546.21 1708.69 L 543.76 1720.00 L 554.49 1741.45 Z" fill="url(#paint6_linear_7_587)" fill-rule="nonzero" node-id="224" stroke="none" target-height="633.4501" target-width="424.69995" target-x="136.77" target-y="1429.11"></path><path d="M 2920.00 2350.66 L 2078.45 2581.00 L 1439.00 2019.33 L 1806.77 1963.00 L 2920.00 2350.66 Z" fill="url(#paint7_linear_7_587)" fill-opacity="0.68" fill-rule="nonzero" node-id="226" stroke="none" target-height="618" target-width="1481" target-x="1439" target-y="1963"></path><path d="M 1628.71 1840.25 L 1686.42 1842.17 L 1736.39 1847.28 L 1768.86 1852.78 L 1795.37 1859.07 L 1816.64 1865.90 L 1837.05 1875.24 L 1849.18 1884.12 L 1855.67 1892.60 L 1857.33 1892.60 L 1857.33 1978.75 L 1857.33 1979.41 L 1855.54 1986.77 L 1850.17 1994.32 L 1839.70 2002.41 L 1820.42 2011.88 L 1791.59 2021.23 L 1759.52 2028.32 L 1720.15 2034.08 L 1678.67 2037.60 L 1632.48 2039.05 L 1628.71 2039.05 L 1581.85 2037.79 L 1539.71 2034.35 L 1499.68 2028.65 L 1467.01 2021.56 L 1437.66 2012.22 L 1418.04 2002.61 L 1407.37 1994.46 L 1401.87 1986.84 L 1400.08 1979.41 L 1400.08 1978.75 L 1400.08 1892.60 L 1401.74 1892.60 L 1408.23 1884.12 L 1420.36 1875.24 L 1440.77 1865.90 L 1462.04 1859.07 L 1488.55 1852.78 L 1521.02 1847.28 L 1570.99 1842.17 L 1628.71 1840.25 Z" fill="url(#paint8_linear_7_587)" fill-rule="nonzero" node-id="228" stroke="none" target-height="198.80005" target-width="457.25" target-x="1400.08" target-y="1840.25"></path><path d="M 1640.04 1878.49 L 1671.45 1896.58 L 1719.56 1878.49 L 1719.56 1432.70 L 1640.04 1432.70 L 1640.04 1878.49 Z" fill="url(#paint9_linear_7_587)" fill-rule="nonzero" node-id="230" stroke="none" target-height="463.88" target-width="79.52002" target-x="1640.04" target-y="1432.7"></path><path d="M 1549.12 1430.98 L 1668.40 1430.98 L 1668.40 1894.86 L 1549.12 1894.86 L 1549.12 1430.98 Z" fill="url(#paint10_linear_7_587)" fill-rule="nonzero" node-id="232" stroke="none" target-height="463.88" target-width="119.28003" target-x="1549.12" target-y="1430.98"></path><path d="M 1783.97 601.71 L 1818.36 639.22 L 1848.91 678.11 L 1875.62 718.60 L 1898.75 760.68 L 1918.63 804.68 L 1934.73 849.35 L 1947.25 894.74 L 1956.20 941.06 L 1961.57 988.05 L 1963.36 1034.83 L 1961.57 1081.68 L 1956.20 1128.60 L 1947.25 1174.92 L 1934.73 1220.38 L 1918.63 1265.05 L 1898.75 1308.98 L 1875.62 1351.06 L 1848.91 1391.55 L 1818.36 1430.52 L 1783.97 1468.03 L 1746.46 1502.42 L 1707.50 1532.97 L 1667.07 1559.67 L 1624.99 1582.80 L 1580.99 1602.61 L 1536.33 1618.78 L 1490.93 1631.31 L 1444.55 1640.26 L 1397.63 1645.62 L 1350.84 1647.41 L 1303.99 1645.62 L 1257.08 1640.26 L 1210.75 1631.31 L 1165.30 1618.78 L 1120.63 1602.61 L 1076.70 1582.80 L 1034.62 1559.67 L 994.13 1532.97 L 955.16 1502.42 L 917.72 1468.03 L 898.50 1447.88 L 880.41 1427.27 L 860.99 1402.88 L 853.04 1385.79 L 847.41 1366.70 L 844.16 1345.10 L 843.57 1320.71 L 846.48 1288.70 L 853.57 1252.99 L 865.57 1213.09 L 880.48 1174.26 L 899.69 1132.64 L 923.62 1088.05 L 949.73 1044.91 L 979.88 1000.11 L 1014.27 953.72 L 1050.65 908.92 L 1090.55 863.80 L 1134.22 818.27 L 1179.74 774.60 L 1224.87 734.71 L 1269.67 698.39 L 1316.05 663.93 L 1360.79 633.78 L 1403.99 607.67 L 1448.52 583.75 L 1490.14 564.53 L 1528.97 549.62 L 1568.93 537.63 L 1604.65 530.54 L 1636.59 527.62 L 1660.98 528.22 L 1682.58 531.46 L 1701.73 537.10 L 1718.76 545.05 L 1743.22 564.47 L 1763.89 582.49 L 1783.97 601.71 Z" fill="url(#paint11_linear_7_587)" fill-rule="nonzero" node-id="234" stroke="none" target-height="1119.79" target-width="1119.79" target-x="843.57" target-y="527.62"></path><path d="M 1728.97 567.64 L 1730.23 571.22 L 1735.26 590.57 L 1737.72 612.51 L 1737.38 637.29 L 1733.81 665.52 L 1725.52 701.84 L 1712.40 742.13 L 1693.85 786.99 L 1672.57 830.46 L 1646.80 876.52 L 1616.18 925.29 L 1583.51 972.61 L 1547.00 1020.85 L 1506.51 1070.09 L 1464.16 1117.73 L 1418.90 1164.72 L 1370.59 1211.10 L 1320.36 1255.50 L 1272.05 1294.67 L 1225.60 1329.06 L 1177.42 1361.27 L 1132.56 1387.97 L 1090.81 1409.58 L 1047.60 1428.46 L 1009.10 1441.58 L 974.91 1449.80 L 948.14 1453.38 L 924.81 1453.78 L 904.33 1451.52 L 886.31 1446.75 L 869.41 1438.93 L 855.16 1428.26 L 843.37 1414.61 L 833.82 1397.58 L 832.43 1394.14 L 828.12 1380.95 L 825.14 1366.37 L 823.49 1345.96 L 824.08 1323.23 L 827.20 1297.98 L 833.16 1269.82 L 843.90 1233.83 L 858.81 1194.47 L 878.49 1151.40 L 900.49 1109.58 L 926.33 1065.71 L 956.42 1019.66 L 988.29 974.93 L 1023.48 929.47 L 1062.12 883.21 L 1102.41 838.41 L 1145.22 794.28 L 1190.74 750.68 L 1250.12 698.59 L 1306.64 653.79 L 1360.52 615.69 L 1403.20 588.65 L 1442.89 566.12 L 1479.80 547.76 L 1514.06 533.19 L 1550.91 520.53 L 1583.44 512.51 L 1612.07 508.54 L 1637.39 508.00 L 1658.33 510.39 L 1676.22 515.43 L 1691.66 522.78 L 1704.98 532.59 L 1716.38 544.85 L 1723.20 555.45 L 1728.97 567.64 Z" fill="url(#paint12_linear_7_587)" fill-rule="nonzero" node-id="236" stroke="none" target-height="945.78" target-width="914.23" target-x="823.49" target-y="508"></path><path d="M 1526.06 1046.83 L 1426.52 1158.82 L 1115.33 841.99 L 1156.02 799.58 L 1526.06 1046.83 Z" fill="url(#paint13_linear_7_587)" fill-rule="nonzero" node-id="238" stroke="none" target-height="359.23993" target-width="410.7301" target-x="1115.33" target-y="799.58"></path><path d="M 1170.07 769.36 L 1169.74 783.28 L 1167.15 796.27 L 1162.38 808.46 L 1155.55 819.66 L 1147.14 829.34 L 1137.00 837.62 L 1125.60 844.05 L 1113.14 848.42 L 1099.36 850.67 L 1085.38 850.34 L 1072.39 847.76 L 1060.26 842.99 L 1049.06 836.16 L 1039.39 827.75 L 1031.04 817.61 L 1024.61 806.21 L 1020.30 793.75 L 1017.98 779.97 L 1018.31 765.99 L 1020.90 753.06 L 1025.74 740.87 L 1032.49 729.67 L 1040.91 720.00 L 1051.05 711.71 L 1062.45 705.28 L 1074.91 700.91 L 1088.69 698.66 L 1102.67 698.99 L 1115.66 701.51 L 1127.79 706.34 L 1138.99 713.17 L 1148.66 721.59 L 1157.01 731.72 L 1163.44 743.06 L 1167.81 755.58 L 1170.07 769.36 Z" fill="url(#paint14_linear_7_587)" fill-rule="nonzero" node-id="240" stroke="none" target-height="152.01001" target-width="152.08997" target-x="1017.98" target-y="698.66"></path><path d="M 941.71 720.99 L 933.42 719.86 L 926.07 716.81 L 919.44 711.71 L 914.41 705.09 L 911.36 697.79 L 910.23 689.51 L 910.16 658.10 L 878.75 658.03 L 870.21 656.84 L 862.92 653.79 L 856.55 648.82 L 851.58 642.46 L 848.54 635.11 L 847.28 626.56 L 848.47 618.08 L 851.52 610.72 L 856.49 604.36 L 862.85 599.45 L 870.14 596.41 L 878.69 595.21 L 910.10 595.28 L 910.03 563.80 L 911.23 555.32 L 914.27 547.96 L 919.24 541.60 L 925.61 536.70 L 932.89 533.65 L 941.44 532.46 L 949.99 533.65 L 957.28 536.70 L 963.64 541.67 L 968.61 548.03 L 971.66 555.39 L 972.92 563.93 L 972.99 595.35 L 1004.40 595.41 L 1012.95 596.60 L 1020.24 599.65 L 1026.60 604.62 L 1031.57 610.99 L 1034.62 618.34 L 1035.87 626.89 L 1034.68 635.37 L 1031.63 642.73 L 1026.66 649.09 L 1020.30 653.99 L 1013.01 657.04 L 1004.46 658.23 L 973.05 658.23 L 973.12 689.58 L 971.99 697.86 L 968.94 705.15 L 963.91 711.78 L 957.28 716.88 L 949.99 719.86 L 941.71 720.99 Z M 751.45 698.92 L 740.59 700.05 L 730.64 698.59 L 721.24 694.48 L 713.22 688.12 L 707.12 680.10 L 703.01 669.96 L 699.96 643.19 L 699.63 616.88 L 701.95 590.91 L 707.05 565.06 L 714.67 539.95 L 724.81 515.89 L 737.47 492.83 L 752.71 470.70 L 764.71 456.98 L 779.88 442.80 L 798.84 428.22 L 819.05 415.76 L 843.50 404.43 L 872.72 394.49 L 902.74 387.73 L 938.26 383.82 L 980.21 383.09 L 990.81 385.21 L 999.76 389.45 L 1007.51 396.01 L 1013.34 404.30 L 1016.86 413.64 L 1017.98 424.31 L 1016.19 434.98 L 1012.08 444.06 L 1005.72 451.88 L 997.57 457.84 L 988.36 461.49 L 977.62 462.81 L 943.63 463.27 L 914.07 466.72 L 888.30 472.88 L 865.90 481.43 L 846.41 492.30 L 829.52 505.35 L 814.87 520.79 L 802.21 540.21 L 792.34 560.69 L 785.05 582.29 L 780.61 604.62 L 779.02 627.35 L 780.28 650.55 L 781.47 661.02 L 780.08 670.96 L 775.91 680.70 L 769.35 688.98 L 761.26 694.95 L 751.45 698.92 Z M 967.62 322.79 L 923.22 325.44 L 883.19 331.14 L 847.21 339.62 L 814.87 350.55 L 785.78 363.87 L 759.60 379.58 L 736.15 397.54 L 715.21 417.95 L 696.38 441.40 L 681.14 465.06 L 669.22 489.05 L 659.54 514.17 L 652.32 537.69 L 647.41 559.83 L 642.64 592.23 L 640.92 616.55 L 641.18 645.38 L 640.65 655.98 L 637.41 665.85 L 631.77 674.47 L 623.89 681.56 L 614.41 686.26 L 604.27 688.32 L 593.93 687.66 L 583.86 684.28 L 575.05 678.31 L 568.22 670.49 L 563.72 661.22 L 561.66 650.81 L 561.00 620.73 L 561.93 598.46 L 564.84 569.63 L 570.01 539.22 L 578.56 504.82 L 590.49 470.17 L 607.19 433.85 L 620.71 410.46 L 637.01 387.20 L 656.16 364.07 L 678.16 342.14 L 702.08 322.39 L 728.06 304.69 L 756.23 289.12 L 786.77 275.67 L 825.61 262.62 L 868.15 252.68 L 914.67 246.11 L 965.63 243.00 L 976.10 244.19 L 985.71 247.90 L 994.06 254.00 L 1000.69 262.22 L 1004.93 271.89 L 1006.52 282.03 L 1005.46 292.24 L 1001.68 302.11 L 995.45 310.59 L 987.43 317.02 L 978.02 321.13 L 967.62 322.79 Z" fill="url(#paint15_linear_7_587)" fill-rule="nonzero" node-id="242" stroke="none" target-height="477.99" target-width="474.87" target-x="561" target-y="243"></path></svg>