<svg xmlns="http://www.w3.org/2000/svg" viewBox="0 0 158.85 26.56"><defs><style>.cls-1{fill:#b55756;}</style></defs><g id="图层_2" data-name="图层 2"><g id="图层_1-2" data-name="图层 1"><path class="cls-1" d="M14.31,5.38,15,5.8q-.54.59-1.2,1.17A10.67,10.67,0,0,1,12.39,8a7.35,7.35,0,0,1-1.53.78,4.74,4.74,0,0,1-1.67.3,5.84,5.84,0,0,1-.81-.06C8.09,9,7.8,9,7.5,8.91s-.6-.12-.91-.2S6,8.56,5.7,8.47l-.82-.23L4.15,8,3.56,7.9a2.41,2.41,0,0,0-.41,0A2.2,2.2,0,0,0,2.36,8a2.47,2.47,0,0,0-.73.4,2,2,0,0,0-.51.67A1.87,1.87,0,0,0,1,10a5.67,5.67,0,0,0,.11.64,2.75,2.75,0,0,0,.22.58,2,2,0,0,0,.42.52,3.5,3.5,0,0,0,.71.48l-.21.44-.52-.21A2.66,2.66,0,0,1,1.06,12a2.85,2.85,0,0,1-.56-.79A2.91,2.91,0,0,1,.26,10a2.56,2.56,0,0,1,.12-.76,3.88,3.88,0,0,1,.33-.77,5.22,5.22,0,0,1,.53-.76,5.75,5.75,0,0,1,.68-.72,5.86,5.86,0,0,1,.79-.6,7.37,7.37,0,0,1,.87-.48,5,5,0,0,1,.92-.3,4.28,4.28,0,0,1,.93-.08,9,9,0,0,1,1.5.2q.74.15,1.47.36l1.51.41a15.4,15.4,0,0,0,1.59.34l.14,0,.29-.06.4-.11.46-.15a4.73,4.73,0,0,0,.47-.2A3.63,3.63,0,0,0,13.7,6a1.76,1.76,0,0,0,.37-.29A.93.93,0,0,0,14.31,5.38ZM10.2,11l-.19.53c-.08.22-.15.46-.22.71a7,7,0,0,0-.17.73,2.93,2.93,0,0,0-.08.58v9.65a2.77,2.77,0,0,1-.23,1.14,3.73,3.73,0,0,1-.64,1,5.06,5.06,0,0,1-.93.78,5,5,0,0,1-1.08.55l-.16.09-.2.11L6.11,27a.46.46,0,0,1-.19,0,.1.1,0,0,1-.11-.13.49.49,0,0,1,.08-.24,3.13,3.13,0,0,0,.24-.52,4.17,4.17,0,0,0,.18-.57c.05-.19.08-.37.11-.54a3.91,3.91,0,0,0,0-.45l0-5.55H4.9a1.12,1.12,0,0,0-.47.11,1.48,1.48,0,0,0-.43.29,1.44,1.44,0,0,0-.34.43,1.67,1.67,0,0,0-.21.52c0,.07,0,.15-.06.24a1.06,1.06,0,0,1-.09.25.62.62,0,0,1-.12.19.18.18,0,0,1-.17.06A.37.37,0,0,1,2.79,21a.74.74,0,0,1-.14-.23.94.94,0,0,1-.1-.28c0-.1,0-.19,0-.27a1.84,1.84,0,0,1,0-.62c0-.21,0-.42,0-.63a1.82,1.82,0,0,1,.25-1,2,2,0,0,1,.66-.67,3,3,0,0,1,.88-.37,3.63,3.63,0,0,1,.9-.11h1.3l0-1.92a5,5,0,0,1,.23-1.57,3.56,3.56,0,0,1,.65-1.16,4.11,4.11,0,0,1,1-.84,7.87,7.87,0,0,1,1.34-.61l.25-.13a.28.28,0,0,1,.25,0,.18.18,0,0,1,.07.21A.82.82,0,0,1,10.2,11ZM2.53,31.94a8.22,8.22,0,0,1,1.76-2.09,10.38,10.38,0,0,1,2.35-1.51,12.45,12.45,0,0,1,2.78-.93,14.84,14.84,0,0,1,3.06-.29A14.3,14.3,0,0,1,15,27.4a13.71,13.71,0,0,1,2.44.73V16.38l-2.62,1.88v4a2.47,2.47,0,0,1-.29,1.17,4.2,4.2,0,0,1-.78,1,5.88,5.88,0,0,1-1.15.81,14.08,14.08,0,0,1-1.35.66.17.17,0,0,1-.1,0L11,25.88a.32.32,0,0,1-.08-.09.14.14,0,0,1,0-.11l.24-.45c.09-.17.17-.33.24-.5a2.82,2.82,0,0,0,.19-.51,1.86,1.86,0,0,0,.07-.52V12.2a3.24,3.24,0,0,1,.3-1.36,5.66,5.66,0,0,1,.8-1.28A7.89,7.89,0,0,1,14,8.41a14,14,0,0,1,1.39-1,15.57,15.57,0,0,1,1.48-.84c.51-.24,1-.45,1.46-.62a11.31,11.31,0,0,1,1.29-.39,4.25,4.25,0,0,1,1-.15,5.49,5.49,0,0,1,1.08.11,5.81,5.81,0,0,1,1,.32,6.92,6.92,0,0,1,1,.52c.33.21.68.46,1,.74l1.88-1.28.5.39L21.9,9.84c-.23-.39-.48-.78-.73-1.15a6,6,0,0,0-.81-1,3.88,3.88,0,0,0-.94-.67,2.53,2.53,0,0,0-1.09-.25,3.25,3.25,0,0,0-1.23.3A5.06,5.06,0,0,0,16,7.82a4.08,4.08,0,0,0-.85,1A2.31,2.31,0,0,0,14.77,10v7.47l2.63-1.84V11.15h.93V15l3.57-2.58,4.71,4.62L22,20.46a11.32,11.32,0,0,1,1.7,1.69A18.39,18.39,0,0,1,25,24.07c.41.68.8,1.37,1.16,2.09s.72,1.43,1.09,2.16L29,27.18l.44.51-4.6,3.41c-.21-.38-.42-.78-.62-1.2s-.39-.86-.58-1.32l-.56-1.37-.55-1.35c-.19-.45-.37-.88-.57-1.29s-.39-.79-.58-1.14a7.68,7.68,0,0,0-.63-.94,4,4,0,0,0-.68-.69l-1.79,1.35v5.22L20,27.18l.79.45L16.15,31l-1.65-.57c-.58-.2-1.19-.4-1.81-.58a17.24,17.24,0,0,0-1.89-.43,8.62,8.62,0,0,0-1.89-.09l-1.47.14a6.13,6.13,0,0,0-1.37.35,5.9,5.9,0,0,0-1.36.74,8.26,8.26,0,0,0-1.44,1.34ZM18.21,15.82v6.43l5.54-4L20,14.59Z" transform="translate(-0.26 -5.38)"/><path class="cls-1" d="M31.76,19.71l-1.17-.15.15-.72a10.23,10.23,0,0,0,2.09-.09,12.19,12.19,0,0,0,1.92-.45,17.73,17.73,0,0,0,1.83-.71l1.81-.87,3.78,4.67-7.65,4.13v2l3.1,1.6,3.67-2,.41.55L35.44,31l-4.59-2.16-1.42.76-.27-.48,2.6-1.63Zm2.73,5,5-2.67L36.6,18.44c-.31.13-.64.25-1,.38s-.72.24-1.12.34Z" transform="translate(-0.26 -5.38)"/><path class="cls-1" d="M45,19.71l-1.18-.15.16-.72A10.16,10.16,0,0,0,46,18.75a12.58,12.58,0,0,0,1.93-.45,16.73,16.73,0,0,0,1.82-.71l1.81-.87,3.78,4.67-7.64,4.13v2l3.09,1.6,3.67-2,.41.55L48.62,31,44,28.81l-1.42.76-.26-.48L45,27.46Zm2.72,5,5-2.67-2.92-3.57c-.3.13-.63.25-1,.38s-.73.24-1.13.34Z" transform="translate(-0.26 -5.38)"/><path class="cls-1" d="M59.19,16.66l.55.46c.23.19.45.4.68.63a4.54,4.54,0,0,1,.58.73,1.54,1.54,0,0,1,.24.8V21l5.91-4.29L70.44,19l2.18-1.23.28.42-3.11,1.93v7.68L71,29l1.16-.72.4.41L69.17,31l-2.36-2,.23-1.2V20.06L65.3,18.9l-4,2.9v6l1.22.88L63.7,28l.37.48L60.24,31l-2.6-1.8-1.23.65-.27-.47,2.43-1.64V20L57.3,18.93l-1.44.79-.31-.44Z" transform="translate(-0.26 -5.38)"/><path class="cls-1" d="M75.71,19.71l-1.18-.15.16-.72a10.13,10.13,0,0,0,2.08-.09,12.32,12.32,0,0,0,1.93-.45,17.73,17.73,0,0,0,1.83-.71l1.81-.87,3.78,4.67-7.65,4.13v2l3.09,1.6,3.68-2,.4.55L79.38,31l-4.59-2.16-1.42.76-.26-.48,2.6-1.63Zm2.72,5,5-2.67-2.92-3.57c-.3.13-.63.25-1,.38s-.73.24-1.13.34Z" transform="translate(-0.26 -5.38)"/><path class="cls-1" d="M103.66,5.47l.67.47a6.59,6.59,0,0,0,.76.45,5.77,5.77,0,0,0,.81.34,2.37,2.37,0,0,0,.83.14,2.83,2.83,0,0,0,.87-.09,6.34,6.34,0,0,0,.83-.3,7.16,7.16,0,0,0,.78-.42,6.11,6.11,0,0,0,.67-.49l.37.21c-.26.44-.52.85-.79,1.23a5.71,5.71,0,0,1-.91,1,4.48,4.48,0,0,1-1.15.78,5.61,5.61,0,0,1-1.53.49v19c.51-.22,1-.44,1.41-.67s.85-.47,1.26-.71.82-.51,1.22-.79l1.25-.87.54.42a9.82,9.82,0,0,1-1,1c-.37.33-.77.66-1.22,1s-.92.65-1.44,1-1.05.61-1.6.88a17,17,0,0,1-1.7.72,15.9,15.9,0,0,1-1.75.52,10.53,10.53,0,0,1-1.74.29,8.57,8.57,0,0,1-1.68,0,24.6,24.6,0,0,1-3.27-.56,15.29,15.29,0,0,1-2.63-.88,11.31,11.31,0,0,1-2.07-1.17A9.8,9.8,0,0,1,89.93,27a8.56,8.56,0,0,1-1.13-1.64A11.62,11.62,0,0,1,88,23.53a14.07,14.07,0,0,1-.47-1.94c-.11-.67-.2-1.36-.26-2.06a11.74,11.74,0,0,1,.06-2.05,11.22,11.22,0,0,1,.46-2,12.89,12.89,0,0,1,.83-2,16.18,16.18,0,0,1,1.13-1.86,14.22,14.22,0,0,1,1.41-1.71,16.67,16.67,0,0,1,1.64-1.5,15.87,15.87,0,0,1,1.82-1.25,13.43,13.43,0,0,1,2-.94l.27.39a15.14,15.14,0,0,0-3,2.4,11.3,11.3,0,0,0-1.89,2.57,9.84,9.84,0,0,0-1,2.76,18.38,18.38,0,0,0-.31,3,16.67,16.67,0,0,0,.11,2.36,11.63,11.63,0,0,0,.5,2.17,10.93,10.93,0,0,0,.87,1.94,9.3,9.3,0,0,0,1.24,1.69A9.69,9.69,0,0,0,95,26.89a10.26,10.26,0,0,0,2,1,11.81,11.81,0,0,0,2.36.65,15.79,15.79,0,0,0,2.73.2,9.48,9.48,0,0,0,1.5-.12c.49-.09,1-.15,1.47-.2V9.32c-.3,0-.62-.06-1-.12a6.61,6.61,0,0,1-1-.22,7.51,7.51,0,0,1-.94-.34,3.28,3.28,0,0,1-.84-.52l-1.57,1V21.66A3.63,3.63,0,0,1,99.47,23a3.85,3.85,0,0,1-.75,1.19,5,5,0,0,1-1.23.93,6.25,6.25,0,0,1-1.71.59.09.09,0,0,1-.09,0,.23.23,0,0,1-.07-.1.35.35,0,0,1,0-.14.25.25,0,0,1,0-.1c.11-.17.23-.34.34-.53s.21-.38.31-.58a6.44,6.44,0,0,0,.24-.61,2.16,2.16,0,0,0,.09-.62V11.44l-3.46,2.34-.32-.6Z" transform="translate(-0.26 -5.38)"/><path class="cls-1" d="M113.78,7.63a14.46,14.46,0,0,1,1,1.21c.29.4.56.81.83,1.23l.55-.85c.19-.29.38-.56.58-.83s.4-.51.61-.76a5.62,5.62,0,0,1,.69-.69l.58.2c-.19.29-.38.61-.58,1a11.2,11.2,0,0,0-.54,1.1,9.55,9.55,0,0,0-.38,1.18,5,5,0,0,0-.15,1.2v9.13l6.66-4,2.64,1.9,1-.72.38.38-2,1.62v8L126.88,29l1.21-.75.41.47L125.1,31l-2.33-2,.17-.91V19.64l-1.46-.88L117,21.48v6.29l1.16.88,1.23-.72.28.48-3.85,2.53-2.56-1.79-1.18.82-.32-.53,2.41-1.75v-17a3,3,0,0,0-.09-.73,6.59,6.59,0,0,0-.22-.72l-.27-.69c-.09-.23-.18-.46-.25-.69Z" transform="translate(-0.26 -5.38)"/><path class="cls-1" d="M131.17,19.71,130,19.56l.16-.72a10.13,10.13,0,0,0,2.08-.09,12.32,12.32,0,0,0,1.93-.45,16.73,16.73,0,0,0,1.82-.71c.6-.28,1.21-.57,1.81-.87l3.78,4.67-7.64,4.13v2l3.09,1.6,3.68-2,.4.55L134.84,31l-4.59-2.16-1.42.76-.26-.48,2.6-1.63Zm2.72,5,5-2.67L136,18.44c-.3.13-.63.25-1,.38s-.73.24-1.13.34Z" transform="translate(-0.26 -5.38)"/><path class="cls-1" d="M145.41,16.66l.55.46c.23.19.45.4.68.63a4.54,4.54,0,0,1,.58.73,1.54,1.54,0,0,1,.24.8V21l5.91-4.29L156.66,19l2.18-1.23.28.42L156,20.16v7.68L157.24,29l1.16-.72.4.41L155.39,31,153,29l.22-1.2V20.06l-1.74-1.16-4,2.9v6l1.21.88,1.19-.71.37.48L146.46,31l-2.6-1.8-1.23.65-.26-.47,2.42-1.64V20l-1.26-1.06-1.45.79-.31-.44Z" transform="translate(-0.26 -5.38)"/></g></g></svg>